<mxfile host="app.diagrams.net" modified="2024-03-27T14:49:29.162Z" agent="Mozilla/5.0 (Macintosh; Intel Mac OS X 10_15_7) AppleWebKit/537.36 (KHTML, like Gecko) Chrome/121.0.0.0 Safari/537.36 OPR/107.0.0.0" etag="IkHT68mlONFSslXpSJEe" version="24.1.0" type="device">
  <diagram name="Page-1" id="au8BLat31U1E7mPtGl3_">
    <mxGraphModel dx="1811" dy="628" grid="1" gridSize="10" guides="1" tooltips="1" connect="1" arrows="1" fold="1" page="1" pageScale="1" pageWidth="850" pageHeight="1100" math="0" shadow="0">
      <root>
        <mxCell id="0" />
        <mxCell id="1" parent="0" />
        <mxCell id="I_1H-PwaqH8emQdjbOPr-234" value="" style="edgeStyle=orthogonalEdgeStyle;rounded=0;orthogonalLoop=1;jettySize=auto;html=1;" edge="1" parent="1" source="I_1H-PwaqH8emQdjbOPr-232" target="I_1H-PwaqH8emQdjbOPr-233">
          <mxGeometry relative="1" as="geometry" />
        </mxCell>
        <mxCell id="I_1H-PwaqH8emQdjbOPr-232" value="all api urls are returning the result of the selected_company from the user model" style="rounded=1;whiteSpace=wrap;html=1;align=left;verticalAlign=top;" vertex="1" parent="1">
          <mxGeometry x="790" y="30" width="190" height="60" as="geometry" />
        </mxCell>
        <mxCell id="I_1H-PwaqH8emQdjbOPr-233" value="" style="whiteSpace=wrap;html=1;align=left;verticalAlign=top;rounded=1;" vertex="1" parent="1">
          <mxGeometry x="825" y="180" width="120" height="60" as="geometry" />
        </mxCell>
        <mxCell id="I_1H-PwaqH8emQdjbOPr-243" value="" style="edgeStyle=orthogonalEdgeStyle;rounded=0;orthogonalLoop=1;jettySize=auto;html=1;entryX=0.5;entryY=0;entryDx=0;entryDy=0;" edge="1" parent="1" source="I_1H-PwaqH8emQdjbOPr-235" target="I_1H-PwaqH8emQdjbOPr-240">
          <mxGeometry relative="1" as="geometry" />
        </mxCell>
        <mxCell id="I_1H-PwaqH8emQdjbOPr-235" value="what all user&#39;s can do when they are not selecting the company" style="text;html=1;align=center;verticalAlign=middle;whiteSpace=wrap;rounded=0;" vertex="1" parent="1">
          <mxGeometry x="-210" width="100" height="80" as="geometry" />
        </mxCell>
        <mxCell id="I_1H-PwaqH8emQdjbOPr-240" value="empty selected_company" style="swimlane;whiteSpace=wrap;html=1;" vertex="1" parent="1">
          <mxGeometry x="-260" y="170" width="200" height="80" as="geometry" />
        </mxCell>
        <mxCell id="I_1H-PwaqH8emQdjbOPr-242" value="create company&lt;div&gt;join company&lt;/div&gt;" style="text;html=1;align=left;verticalAlign=middle;resizable=0;points=[];autosize=1;strokeColor=none;fillColor=none;" vertex="1" parent="I_1H-PwaqH8emQdjbOPr-240">
          <mxGeometry y="23" width="110" height="40" as="geometry" />
        </mxCell>
        <mxCell id="I_1H-PwaqH8emQdjbOPr-244" value="what all user&#39;s can do when they are selecting the company" style="text;html=1;align=center;verticalAlign=middle;whiteSpace=wrap;rounded=0;" vertex="1" parent="1">
          <mxGeometry x="325" y="10" width="100" height="80" as="geometry" />
        </mxCell>
        <mxCell id="I_1H-PwaqH8emQdjbOPr-245" value="joined_company" style="swimlane;whiteSpace=wrap;html=1;" vertex="1" parent="1">
          <mxGeometry x="470" y="140" width="200" height="170" as="geometry" />
        </mxCell>
        <mxCell id="I_1H-PwaqH8emQdjbOPr-250" value="user basic oparations&lt;div&gt;remove himself from the company&lt;/div&gt;" style="text;html=1;align=left;verticalAlign=middle;resizable=0;points=[];autosize=1;strokeColor=none;fillColor=none;" vertex="1" parent="I_1H-PwaqH8emQdjbOPr-245">
          <mxGeometry y="20" width="200" height="40" as="geometry" />
        </mxCell>
        <mxCell id="I_1H-PwaqH8emQdjbOPr-246" value="managed_company" style="swimlane;whiteSpace=wrap;html=1;" vertex="1" parent="1">
          <mxGeometry x="90" y="140" width="220" height="170" as="geometry" />
        </mxCell>
        <mxCell id="I_1H-PwaqH8emQdjbOPr-249" value="delete company&lt;div&gt;update company&lt;/div&gt;&lt;div&gt;generate OTP&lt;/div&gt;&lt;div&gt;high permission operations:&lt;/div&gt;&lt;div style=&quot;&quot;&gt;creating departments,tasks,customer.&lt;/div&gt;" style="text;html=1;align=left;verticalAlign=middle;resizable=0;points=[];autosize=1;strokeColor=none;fillColor=none;" vertex="1" parent="I_1H-PwaqH8emQdjbOPr-246">
          <mxGeometry y="20" width="220" height="90" as="geometry" />
        </mxCell>
        <mxCell id="I_1H-PwaqH8emQdjbOPr-247" value="" style="endArrow=classic;html=1;rounded=0;entryX=0.5;entryY=0;entryDx=0;entryDy=0;exitX=0;exitY=0.5;exitDx=0;exitDy=0;" edge="1" parent="1" source="I_1H-PwaqH8emQdjbOPr-244" target="I_1H-PwaqH8emQdjbOPr-246">
          <mxGeometry width="50" height="50" relative="1" as="geometry">
            <mxPoint x="170" y="250" as="sourcePoint" />
            <mxPoint x="220" y="200" as="targetPoint" />
          </mxGeometry>
        </mxCell>
        <mxCell id="I_1H-PwaqH8emQdjbOPr-248" value="" style="endArrow=classic;html=1;rounded=0;entryX=0.5;entryY=0;entryDx=0;entryDy=0;exitX=1;exitY=0.5;exitDx=0;exitDy=0;" edge="1" parent="1" source="I_1H-PwaqH8emQdjbOPr-244" target="I_1H-PwaqH8emQdjbOPr-245">
          <mxGeometry width="50" height="50" relative="1" as="geometry">
            <mxPoint x="335" y="60" as="sourcePoint" />
            <mxPoint x="240" y="150" as="targetPoint" />
          </mxGeometry>
        </mxCell>
        <mxCell id="I_1H-PwaqH8emQdjbOPr-253" value="" style="edgeStyle=orthogonalEdgeStyle;rounded=0;orthogonalLoop=1;jettySize=auto;html=1;entryX=0.5;entryY=0;entryDx=0;entryDy=0;" edge="1" parent="1" source="I_1H-PwaqH8emQdjbOPr-251" target="I_1H-PwaqH8emQdjbOPr-254">
          <mxGeometry relative="1" as="geometry">
            <mxPoint x="382.5" y="500" as="targetPoint" />
          </mxGeometry>
        </mxCell>
        <mxCell id="I_1H-PwaqH8emQdjbOPr-251" value="how the backend knows how to access the user&#39;s specific data from a specific company??" style="text;html=1;align=center;verticalAlign=middle;whiteSpace=wrap;rounded=0;fillColor=#dae8fc;strokeColor=#6c8ebf;" vertex="1" parent="1">
          <mxGeometry x="320" y="360" width="125" height="70" as="geometry" />
        </mxCell>
        <mxCell id="I_1H-PwaqH8emQdjbOPr-254" value="logic" style="swimlane;whiteSpace=wrap;html=1;" vertex="1" parent="1">
          <mxGeometry x="190" y="480" width="200" height="70" as="geometry" />
        </mxCell>
        <mxCell id="I_1H-PwaqH8emQdjbOPr-255" value="&lt;span style=&quot;text-wrap: wrap;&quot;&gt;user_object.selected_company&lt;/span&gt;" style="text;html=1;align=left;verticalAlign=middle;resizable=0;points=[];autosize=1;strokeColor=none;fillColor=none;" vertex="1" parent="I_1H-PwaqH8emQdjbOPr-254">
          <mxGeometry y="35" width="190" height="30" as="geometry" />
        </mxCell>
        <mxCell id="I_1H-PwaqH8emQdjbOPr-256" value="" style="edgeStyle=orthogonalEdgeStyle;rounded=0;orthogonalLoop=1;jettySize=auto;html=1;exitX=0.5;exitY=1;exitDx=0;exitDy=0;entryX=0.5;entryY=0;entryDx=0;entryDy=0;" edge="1" parent="1" source="I_1H-PwaqH8emQdjbOPr-260" target="I_1H-PwaqH8emQdjbOPr-257">
          <mxGeometry relative="1" as="geometry">
            <mxPoint x="393" y="440" as="sourcePoint" />
            <mxPoint x="510" y="480" as="targetPoint" />
          </mxGeometry>
        </mxCell>
        <mxCell id="I_1H-PwaqH8emQdjbOPr-257" value="logic" style="swimlane;whiteSpace=wrap;html=1;" vertex="1" parent="1">
          <mxGeometry x="522.5" y="490" width="370" height="60" as="geometry" />
        </mxCell>
        <mxCell id="I_1H-PwaqH8emQdjbOPr-263" value="&lt;span style=&quot;text-align: right;&quot;&gt;the admin will have to permit all the urls that the user can access&amp;nbsp;&lt;/span&gt;" style="text;html=1;align=center;verticalAlign=middle;resizable=0;points=[];autosize=1;strokeColor=none;fillColor=none;" vertex="1" parent="I_1H-PwaqH8emQdjbOPr-257">
          <mxGeometry y="25" width="370" height="30" as="geometry" />
        </mxCell>
        <mxCell id="I_1H-PwaqH8emQdjbOPr-260" value="how the backend knows which urls the user is permitted to enter?" style="text;html=1;align=center;verticalAlign=middle;whiteSpace=wrap;rounded=0;fillColor=#dae8fc;strokeColor=#6c8ebf;" vertex="1" parent="1">
          <mxGeometry x="560" y="360" width="125" height="70" as="geometry" />
        </mxCell>
        <mxCell id="I_1H-PwaqH8emQdjbOPr-265" value="" style="edgeStyle=orthogonalEdgeStyle;rounded=0;orthogonalLoop=1;jettySize=auto;html=1;entryX=0.5;entryY=0;entryDx=0;entryDy=0;" edge="1" parent="1" source="I_1H-PwaqH8emQdjbOPr-263" target="I_1H-PwaqH8emQdjbOPr-266">
          <mxGeometry relative="1" as="geometry">
            <mxPoint x="708" y="625" as="targetPoint" />
          </mxGeometry>
        </mxCell>
        <mxCell id="I_1H-PwaqH8emQdjbOPr-270" value="" style="edgeStyle=orthogonalEdgeStyle;rounded=0;orthogonalLoop=1;jettySize=auto;html=1;" edge="1" parent="1" source="I_1H-PwaqH8emQdjbOPr-266" target="I_1H-PwaqH8emQdjbOPr-269">
          <mxGeometry relative="1" as="geometry" />
        </mxCell>
        <mxCell id="I_1H-PwaqH8emQdjbOPr-266" value="example" style="swimlane;whiteSpace=wrap;html=1;" vertex="1" parent="1">
          <mxGeometry x="517.5" y="630" width="385" height="140" as="geometry" />
        </mxCell>
        <mxCell id="I_1H-PwaqH8emQdjbOPr-267" value="&lt;div style=&quot;&quot;&gt;if the user have have to access dashboard view&lt;/div&gt;&lt;div style=&quot;&quot;&gt;then the admin will add to the user the dashboard_view_permission&lt;/div&gt;&lt;div style=&quot;&quot;&gt;&lt;br&gt;&lt;/div&gt;&lt;div style=&quot;&quot;&gt;if the user will need to access the income and outcome so he will&lt;/div&gt;&lt;div style=&quot;&quot;&gt;&lt;span style=&quot;background-color: initial;&quot;&gt;add the income update and view option&lt;/span&gt;&lt;/div&gt;&lt;div style=&quot;&quot;&gt;&lt;br&gt;&lt;/div&gt;" style="text;html=1;align=left;verticalAlign=middle;resizable=0;points=[];autosize=1;strokeColor=none;fillColor=none;labelPosition=center;verticalLabelPosition=middle;" vertex="1" parent="I_1H-PwaqH8emQdjbOPr-266">
          <mxGeometry x="5" y="30" width="380" height="100" as="geometry" />
        </mxCell>
        <mxCell id="I_1H-PwaqH8emQdjbOPr-273" value="" style="edgeStyle=orthogonalEdgeStyle;rounded=0;orthogonalLoop=1;jettySize=auto;html=1;entryX=0.5;entryY=0;entryDx=0;entryDy=0;" edge="1" parent="1" source="I_1H-PwaqH8emQdjbOPr-269" target="I_1H-PwaqH8emQdjbOPr-271">
          <mxGeometry relative="1" as="geometry">
            <mxPoint x="710" y="1075" as="targetPoint" />
          </mxGeometry>
        </mxCell>
        <mxCell id="I_1H-PwaqH8emQdjbOPr-269" value="what will happen if in company x the admin will add to our user that can update models but in company y he cant do that??" style="whiteSpace=wrap;html=1;fontStyle=1;startSize=23;fillColor=#dae8fc;strokeColor=#6c8ebf;" vertex="1" parent="1">
          <mxGeometry x="615" y="830" width="190" height="110" as="geometry" />
        </mxCell>
        <mxCell id="I_1H-PwaqH8emQdjbOPr-271" value="approach" style="swimlane;whiteSpace=wrap;html=1;" vertex="1" parent="1">
          <mxGeometry x="570" y="1000" width="295" height="200" as="geometry" />
        </mxCell>
        <mxCell id="I_1H-PwaqH8emQdjbOPr-274" value="add custom permissions to each company table&amp;nbsp;&lt;div&gt;in the permission list we will have our user and&lt;/div&gt;&lt;div&gt;&amp;nbsp;hes permissions and in our view we will&lt;/div&gt;&lt;div&gt;&amp;nbsp;recheck if the&amp;nbsp;&lt;span style=&quot;background-color: initial;&quot;&gt;user has this permissions or not&lt;/span&gt;&lt;/div&gt;" style="text;html=1;align=left;verticalAlign=middle;resizable=0;points=[];autosize=1;strokeColor=none;fillColor=none;" vertex="1" parent="I_1H-PwaqH8emQdjbOPr-271">
          <mxGeometry x="7.5" y="30" width="280" height="70" as="geometry" />
        </mxCell>
      </root>
    </mxGraphModel>
  </diagram>
</mxfile>
